# xmcd
#
# Track frame offsets:
#	150
#	9638
#	24942
#	41260
#	53842
#	70078
#	82148
#	92762
#	107785
#	117634
#	132947
#	145051
#	155356
#
# Disc length: 2284 seconds
#
# Revision: 2
# Processed by: cddbd v1.5.1PL0 Copyright (c) Steve Scherf et al.
# Submitted via: audiograbber 1.83.01
#
DISCID=a808ea0d
DTITLE=Cabin Fever - River's Edge
DYEAR=2001
DGENRE=Bluegrass
TTITLE0=Mama's Brew
TTITLE1=I Need A Dollar
TTITLE2=I Nedd Your Love
TTITLE3=My Little Touch Of Heaven
TTITLE4=With Golden Wings
TTITLE5=Rivers Edge
TTITLE6=Ol' Train Whistle Blow
TTITLE7=Imaginary Stone
TTITLE8=Life Lines
TTITLE9=I Want To Know
TTITLE10=Back Home In Tennessee
TTITLE11=Long Gone
TTITLE12=Strangers Toinght
EXTD=
EXTT0=
EXTT1=
EXTT2=
EXTT3=
EXTT4=
EXTT5=
EXTT6=
EXTT7=
EXTT8=
EXTT9=
EXTT10=
EXTT11=
EXTT12=
PLAYORDER=
